<svg width="600" height="524" viewBox="0 0 600 524" fill="none" xmlns="http://www.w3.org/2000/svg">
<path d="M414.106 342.858C413.695 341.675 413.262 340.471 412.767 339.224L313.617 66.9112C312.664 64.0402 310.841 61.5381 308.403 59.7526C305.964 57.9671 303.031 56.987 300.011 56.9484C296.99 56.987 294.057 57.9671 291.618 59.7526C289.18 61.5381 287.357 64.0402 286.404 66.9112L187.255 339.224C186.759 340.471 186.326 341.675 185.915 342.858C185.337 344.519 185.041 346.266 185.04 348.025C184.989 351.999 186.516 355.831 189.285 358.678C192.054 361.525 195.839 363.154 199.806 363.206C202.752 363.209 205.628 362.306 208.044 360.618L259.94 326.018C261.722 324.803 263.579 323.693 265.467 322.637L204.732 357.227C203.214 358.1 201.494 358.559 199.743 358.558C197.001 358.522 194.385 357.396 192.47 355.429C190.556 353.462 189.499 350.814 189.533 348.067C189.53 346.457 189.89 344.868 190.588 343.418L284.59 150.195C285.975 147.282 288.155 144.822 290.879 143.099C293.603 141.377 296.758 140.463 299.979 140.463C303.2 140.463 306.355 141.377 309.079 143.099C311.803 144.822 313.983 147.282 315.368 150.195L409.37 343.418C410.068 344.868 410.428 346.457 410.425 348.067C410.459 350.814 409.402 353.462 407.488 355.429C405.573 357.396 402.957 358.522 400.215 358.558C398.464 358.559 396.744 358.1 395.226 357.227L334.502 322.605C336.39 323.662 338.246 324.771 340.029 325.986L391.956 360.618C394.372 362.306 397.248 363.209 400.194 363.206C404.162 363.154 407.946 361.525 410.715 358.678C413.484 355.831 415.011 351.999 414.961 348.025C414.966 346.267 414.677 344.52 414.106 342.858Z" fill="url(#paint0_linear_2_49)"/>
<path d="M568.362 466.945L338.632 45.2275C334.873 38.2498 329.304 32.4115 322.51 28.3247C315.715 24.2379 307.946 22.0533 300.016 22C292.1 22.0547 284.343 24.2333 277.558 28.3082C270.772 32.3831 265.206 38.2045 261.442 45.1642L31.6699 466.945C29.2315 471.454 28.2533 476.609 28.8702 481.698C29.4871 486.786 31.6687 491.559 35.1142 495.356C37.2992 497.763 39.9639 499.686 42.937 501.002C45.9101 502.319 49.1259 502.999 52.3777 503C55.4957 502.995 58.5799 502.355 61.4427 501.121L61.6223 501.057L257.079 421.091C270.646 415.555 285.161 412.708 299.815 412.708H300.069C314.748 412.698 329.289 415.546 342.879 421.091L538.336 501.057L538.505 501.121C541.385 502.36 544.487 502.999 547.622 503C550.874 502.999 554.09 502.319 557.063 501.002C560.036 499.686 562.701 497.763 564.886 495.356C568.331 491.559 570.513 486.786 571.13 481.698C571.747 476.609 570.769 471.454 568.33 466.945H568.362ZM185.732 342.899C186.144 341.716 186.577 340.513 187.074 339.267L286.387 67.1353C287.309 64.2464 289.126 61.7252 291.576 59.9362C294.026 58.1471 296.982 57.1829 300.016 57.1829C303.05 57.1829 306.006 58.1471 308.456 59.9362C310.906 61.7252 312.723 64.2464 313.645 67.1353L412.958 339.267C413.455 340.513 413.888 341.716 414.3 342.899C414.879 344.559 415.175 346.304 415.177 348.062C415.228 352.033 413.698 355.863 410.924 358.708C408.151 361.553 404.36 363.181 400.386 363.234C397.435 363.237 394.554 362.334 392.134 360.647L340.132 326.07C338.347 324.855 336.487 323.747 334.596 322.691C324.061 316.793 312.187 313.696 300.111 313.696H299.921C287.845 313.696 275.971 316.793 265.436 322.691C263.545 323.747 261.685 324.855 259.9 326.07L207.898 360.647C205.477 362.334 202.597 363.237 199.646 363.234C195.672 363.181 191.881 361.553 189.108 358.708C186.334 355.863 184.804 352.033 184.855 348.062C184.856 346.304 185.153 344.559 185.732 342.899Z" fill="#22BCF0"/>
<path d="M525.519 470.273L323.543 341.739H323.459C316.496 337.16 308.344 334.711 300.005 334.696C291.667 334.711 283.514 337.16 276.552 341.739H276.478L74.5132 470.273L35.1282 495.367C37.3132 497.77 39.9777 499.691 42.9506 501.005C45.9236 502.32 49.1391 502.999 52.3908 503C55.5086 502.995 58.5927 502.356 61.4553 501.123L61.6349 501.06L257.081 421.204C270.647 415.676 285.161 412.833 299.815 412.833H300.069C314.747 412.823 329.287 415.667 342.877 421.204L538.323 501.06L538.492 501.123C541.372 502.361 544.474 502.999 547.609 503C550.861 502.999 554.077 502.32 557.049 501.005C560.022 499.691 562.687 497.77 564.872 495.367L525.519 470.273Z" fill="url(#paint1_linear_2_49)"/>
<defs>
<linearGradient id="paint0_linear_2_49" x1="300" y1="56.9484" x2="300" y2="363.206" gradientUnits="userSpaceOnUse">
<stop stop-color="#1990B9"/>
<stop offset="1" stop-color="#0E566E"/>
</linearGradient>
<linearGradient id="paint1_linear_2_49" x1="300" y1="334.696" x2="300" y2="503" gradientUnits="userSpaceOnUse">
<stop stop-color="#126A88"/>
<stop offset="1" stop-color="#22BCF0"/>
</linearGradient>
</defs>
</svg>
